<?xml version="1.0" encoding="UTF-8"?><svg width="24px" height="24px" viewBox="0 0 24 24" version="1.1" xmlns="http://www.w3.org/2000/svg" xmlns:xlink="http://www.w3.org/1999/xlink"><title>Qwant_logo_Rounded_edge_square</title><g id="Qwant_logo_Rounded_edge_square" stroke="none" stroke-width="1" fill="none" fill-rule="evenodd"><path d="M4,0 L20,0 C22.209139,0 24,1.790861 24,4 L24,20 C24,22.209139 22.209139,24 20,24 L4,24 C1.790861,24 0,22.209139 0,20 L0,4 C0,1.790861 1.790861,0 4,0 Z" id="Rectangle" fill="#5C97FF"/><g id="Brands/Logos/Qwant/Letter-Monochrome" transform="translate(3.000000, 3.000000)" fill="#050506"><path d="M8.68527786,14.9155214 C12.7511204,14.8607335 16.0418659,11.5369361 16.0418659,7.45843293 C16.0418659,3.34575739 12.6959964,0 8.58343293,0 C4.47086944,0 1.125,3.34575739 1.125,7.45843293 C1.125,11.5706603 4.47042127,14.9163056 8.5825366,14.9167538 L9.54967135,18 L16.9841276,18 L16.0166567,14.9155214 L8.68527786,14.9155214 Z M3.64815506,7.45843293 C3.64815506,4.73696594 5.86207798,2.52304302 8.58343293,2.52304302 C11.3048999,2.52304302 13.5188228,4.73696594 13.5188228,7.45843293 C13.5188228,10.1797879 11.3048999,12.3937108 8.58343293,12.3937108 C5.86207798,12.3937108 3.64815506,10.1797879 3.64815506,7.45843293 L3.64815506,7.45843293 Z" id="Fill-351"/></g></g></svg>