<svg width="491" height="204" viewBox="0 0 491 204" fill="none" xmlns="http://www.w3.org/2000/svg"><path d="M114.11 47.691c3.694-6.778 2.633-11.29-1.573-16.496-4.225-4.681-16.16-7.808-20.385-1.217-2.634-9.718-23.02-12.845-26.884-.693-5.627-12.845-28.646-3.464-23.89 8.688C31.714 34.51 16.955 44.06 27.32 56.38c-13.698 1.91-15.46 18.93-1.762 25.708-2.634 3.82-1.933 11.628 1.402 14.418 4.926 4.175 10.723 5.205 14.929 1.554-.701 4.344 1.402 7.995 6.157 8.332 1.573.169 3.695 0 4.926-.861.872-.524 1.061-1.386.872-2.078-.17-1.049-4.225-7.808-3.335-11.984.17-.861.53-1.554 1.232-2.078.53-.356 1.06-.693 1.572-.693 3.865-.524 8.962 5.898 11.064 8.332l.701.693s-.871-11.46 3.865-14.062c.53-.356 1.232-.524 1.933-.524.53 0 1.06.168 1.402.356 4.736 2.078 3.164 16.159 3.164 16.159-.17-1.217 8.26-6.947 13.887-8.333 2.292-.524 4.035-.355 4.566 1.218.7 2.078-1.061 6.422-7.029 14.586 9.492 6.422 26.524-.525 27.244-12.152 7.9 1.217 22.659-9.025 13.357-22.226 11.253-11.852.89-28.685-13.357-25.053Z" fill="#C91239"/><path d="M115.341 135.563H88.457c-5.968-1.555-9.321-6.254-11.064-11.984-2.293-7.302-.701-14.586 4.566-20.147 3.164-3.296 7.028-5.898 10.363-9.025a5.366 5.366 0 0 0 1.572-1.91c-.53-1.554-2.292-1.741-4.566-1.217-5.096 3.988-9.662 8.332-14.228 13.032-.7.861-1.572 1.741-1.572 2.771-.36-4.681-1.232-9.55-1.232-14.586v-9.025c-.36-.169-.871-.356-1.402-.356-.7 0-1.402.169-1.932.524 0 1.91 0 3.989-.36 5.898-.53 5.206 0 10.243-1.762 15.279-2.804-.692-5.096-3.988-6.669-6.085-2.292-3.127-4.395-6.422-6.669-9.55-.17-.168-.17-.355-.36-.524-.53 0-1.06.356-1.572.693-.701.525-1.061 1.217-1.232 2.079 5.457 7.64 11.766 14.942 14.759 23.798 1.402 4.176 1.933 8.857 0 12.845-1.932 3.82-4.926 5.898-9.492 7.302H29.953c-3.335 0-6.158 2.771-6.158 6.086v28.123a6.037 6.037 0 0 0 2.994 5.206l.7-1.386-.7-2.771 1.06-7.115 1.403-9.55v-.861l1.06-5.037.36-2.265c0-.169.171-.356.171-.525.36-.692 1.232-1.217 2.103-1.048 1.061.168 1.762 1.217 1.573 2.078l-1.573 7.471c0 .169 0 .693-.17 1.217l1.402.356c.17-1.741.36-3.82.53-4.681v-.356l1.573-5.374.7-2.434c0-.168.171-.356.171-.524.36-.693 1.402-1.217 2.463-.861 1.061.355 1.762 1.385 1.572 2.265l-2.292 7.995v.169l-.7 4.681.87.356.171-.862c0-.168.17-.524.17-.861l3.866-13.893c.36-1.386 1.06-2.434 1.572-2.603.53-.356 1.061-.524 1.402-.356 1.061.356 1.572 2.079 1.231 3.652l-3.864 13.724c-.17.693-.36 1.218-.53 1.555l.53 1.554 1.231.355 2.633-6.778v-.168l2.634-6.591c.53-1.217 1.231-2.266 1.932-2.266.53-.168 1.061-.356 1.402-.168 1.061.524 1.402 2.078.872 3.651l-5.096 13.2-1.933 9.55 3.505-3.651s.53-1.217.871-2.079c0-.168.171-.356.171-.524 0-.169.17-.356.17-.356v-.168c.531-1.049 1.402-2.266 3.164-3.127 1.402-.693 2.103-.356 2.634.168.17.169.36.356.36.524.36.862-2.634 6.947-2.634 6.947s-3.865 6.423-3.865 6.591h-.17l-11.254 7.64-.17.337 1.762 1.048c2.103-1.048 4.225-2.078 6.328-3.127 1.932-1.048 3.694-1.91 5.626-2.958.17 0 .36-.169.53-.356l.171-.169h60.968c3.334 0 6.157-2.771 6.157-6.085v-28.292c-.114-3.314-2.918-6.085-6.271-6.085Zm-22.66 19.791c0-1.217.872-2.078 2.104-2.078h2.804c1.231 0 2.103.861 2.103 2.078v1.91c0 1.217-.872 2.078-2.103 2.078h-2.804c-1.232 0-2.103-.861-2.103-2.078v-1.91Zm-1.401-10.411v1.91c0 1.217-.872 2.079-2.103 2.079h-2.804c-1.232 0-2.103-.862-2.103-2.079v-1.91c0-1.217.871-2.078 2.103-2.078h2.804c1.212 0 2.103.861 2.103 2.078Zm-12.656 3.989H75.82c-1.231 0-2.103-.862-2.103-2.079v-1.91c0-1.217.872-2.078 2.103-2.078h2.804c1.232 0 2.103.861 2.103 2.078v1.91c0 1.217-1.042 2.079-2.103 2.079Zm1.061 6.422v1.91c0 1.217-.871 2.078-2.103 2.078h-2.804c-1.231 0-2.103-.861-2.103-2.078v-1.91c0-1.217.872-2.078 2.103-2.078h2.804c1.213 0 2.103 1.048 2.103 2.078Zm-16.88 1.91v-1.91c0-1.217.871-2.078 2.102-2.078h2.634c1.231 0 2.103.861 2.103 2.078v1.91c0 1.217-.872 2.078-2.103 2.078h-2.633c-1.213.019-2.103-.861-2.103-2.078Zm5.285-8.332h-2.803c-1.232 0-2.104-.862-2.104-2.079v-1.91c0-1.217.872-2.078 2.104-2.078h2.803c1.232 0 2.103.861 2.103 2.078v1.91c-.17 1.217-1.06 2.079-2.103 2.079Zm14.57 6.422c0-1.217.871-2.078 2.103-2.078h2.804c1.231 0 2.103.861 2.103 2.078v1.91c0 1.217-.872 2.078-2.103 2.078h-2.804c-1.232 0-2.103-.861-2.103-2.078v-1.91Zm18.983 12.171c0 1.217-1.061 2.265-2.292 2.265H58.94l.17-.168c.17-.169.17-.356.53-.693l.36-.693c.531-.861 1.062-1.741 1.573-2.602.17-.525.53-.862.701-1.386.17-.169.17-.337.36-.693H99.54c1.232 0 2.293 1.049 2.293 2.266v1.741l-.19-.037Zm.171-20.672c0 1.217-.872 2.079-2.103 2.079h-2.804c-1.232 0-2.103-.862-2.103-2.079v-1.91c0-1.217.871-2.078 2.103-2.078h2.804c1.231 0 2.103.861 2.103 2.078v1.91Zm.89 10.411v-1.91c0-1.217.872-2.078 2.103-2.078h2.634c1.231 0 2.103.861 2.103 2.078v1.91c0 1.217-.872 2.078-2.103 2.078h-2.804c-1.061.019-1.933-.861-1.933-2.078Zm9.303 10.429c0 1.217-.872 2.079-2.103 2.079H107.1c-1.232 0-2.103-.862-2.103-2.079v-1.91c0-1.217.871-2.078 2.103-2.078h2.804c1.231 0 2.103.861 2.103 2.078v1.91Zm.53-20.84c0 1.217-.872 2.079-2.103 2.079h-2.823c-1.231 0-2.103-.862-2.103-2.079v-1.91c0-1.217.872-2.078 2.103-2.078h2.804c1.232 0 2.103.861 2.103 2.078v1.91h.019Z" fill="#C91239"/><path d="M191.506 93.853c-.323.592-.821.888-1.493.888-.404 0-.861-.148-1.373-.445a23.997 23.997 0 0 0-1.897-.968c-.726-.377-1.601-.713-2.623-1.01-1.023-.322-2.234-.484-3.633-.484-1.211 0-2.301.162-3.27.485-.968.296-1.803.713-2.502 1.25a5.871 5.871 0 0 0-1.574 1.898 5.07 5.07 0 0 0-.525 2.3c0 1.05.296 1.925.888 2.624.619.7 1.426 1.305 2.422 1.817.995.511 2.126.968 3.39 1.372 1.265.377 2.557.794 3.875 1.251 1.346.431 2.651.915 3.915 1.453a14.144 14.144 0 0 1 3.391 2.019 8.931 8.931 0 0 1 2.381 2.987c.619 1.157.929 2.556.929 4.197 0 1.884-.337 3.633-1.009 5.248a11.65 11.65 0 0 1-2.987 4.157c-1.319 1.157-2.933 2.072-4.844 2.745-1.91.673-4.117 1.009-6.619 1.009-2.853 0-5.436-.458-7.75-1.372-2.314-.942-4.279-2.14-5.893-3.593l1.695-2.745c.215-.349.471-.618.767-.807.296-.188.673-.282 1.13-.282.484 0 .996.188 1.534.565.538.376 1.184.794 1.937 1.251.781.457 1.722.875 2.826 1.251 1.103.377 2.475.565 4.117.565 1.399 0 2.623-.175 3.673-.524 1.049-.377 1.924-.875 2.624-1.494.699-.619 1.21-1.332 1.533-2.139.35-.807.525-1.668.525-2.583 0-1.131-.309-2.059-.928-2.785-.592-.754-1.386-1.386-2.382-1.898-.995-.538-2.139-.995-3.431-1.372l-3.915-1.251a53.004 53.004 0 0 1-3.915-1.453 14.382 14.382 0 0 1-3.391-2.099 9.73 9.73 0 0 1-2.422-3.068c-.592-1.238-.888-2.731-.888-4.48 0-1.56.323-3.054.969-4.48a10.792 10.792 0 0 1 2.826-3.795c1.237-1.103 2.758-1.978 4.561-2.623 1.803-.646 3.861-.97 6.175-.97 2.691 0 5.1.431 7.225 1.293 2.153.834 4.01 1.99 5.571 3.47l-1.615 2.625Zm23.063 34.793c-3.229 0-5.719-.902-7.468-2.704-1.722-1.803-2.583-4.4-2.583-7.791V93.126h-4.924c-.431 0-.794-.121-1.09-.363-.296-.27-.444-.673-.444-1.211v-2.866l6.7-.848 1.655-12.633c.081-.404.256-.727.525-.97.296-.268.673-.403 1.13-.403h3.633V87.92h11.826v5.207h-11.826v24.541c0 1.722.417 3 1.251 3.835.834.834 1.911 1.251 3.229 1.251.754 0 1.399-.094 1.938-.283a9.22 9.22 0 0 0 1.453-.686c.403-.242.74-.457 1.009-.646.296-.215.551-.323.767-.323.376 0 .713.229 1.009.687l2.099 3.43c-1.238 1.158-2.732 2.072-4.481 2.745a15.49 15.49 0 0 1-5.408.969Zm32.778-42.18c2.987 0 5.678.498 8.073 1.493 2.394.996 4.44 2.409 6.135 4.239 1.695 1.83 2.987 4.05 3.875 6.66.915 2.583 1.372 5.476 1.372 8.678 0 3.229-.457 6.135-1.372 8.718-.888 2.584-2.18 4.79-3.875 6.62-1.695 1.83-3.741 3.242-6.135 4.238-2.395.969-5.086 1.453-8.073 1.453-3.014 0-5.732-.484-8.154-1.453-2.395-.996-4.44-2.408-6.135-4.238-1.695-1.83-3-4.036-3.915-6.62-.888-2.583-1.332-5.489-1.332-8.718 0-3.202.444-6.095 1.332-8.678.915-2.61 2.22-4.83 3.915-6.66 1.695-1.83 3.74-3.243 6.135-4.239 2.422-.995 5.14-1.493 8.154-1.493Zm0 36.489c4.036 0 7.05-1.346 9.041-4.037 1.992-2.718 2.987-6.498 2.987-11.342 0-4.87-.995-8.665-2.987-11.382-1.991-2.718-5.005-4.077-9.041-4.077-2.045 0-3.835.35-5.369 1.05a10.15 10.15 0 0 0-3.794 3.027c-.995 1.318-1.749 2.946-2.26 4.884-.484 1.91-.727 4.076-.727 6.498 0 4.844.996 8.624 2.987 11.342 2.018 2.691 5.073 4.037 9.163 4.037Zm34.789-27.65c1.292-2.798 2.88-4.978 4.763-6.538 1.884-1.588 4.185-2.382 6.902-2.382.861 0 1.682.094 2.463.283.807.188 1.52.484 2.139.888l-.525 5.368c-.161.673-.565 1.01-1.211 1.01-.377 0-.928-.081-1.655-.243-.726-.161-1.547-.242-2.462-.242-1.292 0-2.449.188-3.471.565a8.186 8.186 0 0 0-2.705 1.695c-.78.727-1.493 1.642-2.139 2.745-.619 1.076-1.184 2.314-1.695 3.713V128h-7.225V87.112h4.117c.78 0 1.318.148 1.614.444.296.296.498.807.606 1.534l.484 6.216Zm57.262-8.193-22.805 52.957c-.242.538-.552.969-.929 1.291-.349.323-.901.485-1.655.485h-5.328l7.468-16.226-16.872-38.507h6.216c.619 0 1.103.161 1.453.484.377.296.632.632.767 1.01l10.938 25.751c.431 1.13.794 2.314 1.09 3.552.377-1.265.78-2.462 1.211-3.592l10.616-25.712c.161-.43.43-.78.807-1.05a2.204 2.204 0 0 1 1.332-.443h5.691Zm41.461-.646c2.987 0 5.678.498 8.072 1.493 2.395.996 4.44 2.409 6.136 4.239 1.695 1.83 2.987 4.05 3.875 6.66.915 2.583 1.372 5.476 1.372 8.678 0 3.229-.457 6.135-1.372 8.718-.888 2.584-2.18 4.79-3.875 6.62-1.696 1.83-3.741 3.242-6.136 4.238-2.394.969-5.085 1.453-8.072 1.453-3.014 0-5.732-.484-8.154-1.453-2.395-.996-4.44-2.408-6.135-4.238-1.695-1.83-3-4.036-3.915-6.62-.888-2.583-1.332-5.489-1.332-8.718 0-3.202.444-6.095 1.332-8.678.915-2.61 2.22-4.83 3.915-6.66 1.695-1.83 3.74-3.243 6.135-4.239 2.422-.995 5.14-1.493 8.154-1.493Zm0 36.489c4.036 0 7.05-1.346 9.041-4.037 1.991-2.718 2.987-6.498 2.987-11.342 0-4.87-.996-8.665-2.987-11.382-1.991-2.718-5.005-4.077-9.041-4.077-2.045 0-3.835.35-5.369 1.05a10.142 10.142 0 0 0-3.794 3.027c-.995 1.318-1.749 2.946-2.26 4.884-.485 1.91-.727 4.076-.727 6.498 0 4.844.996 8.624 2.987 11.342 2.018 2.691 5.073 4.037 9.163 4.037Zm34.749-29.91a24.312 24.312 0 0 1 2.825-2.704 18.073 18.073 0 0 1 3.149-2.059 15.284 15.284 0 0 1 3.552-1.332c1.264-.323 2.623-.484 4.076-.484 2.234 0 4.198.377 5.893 1.13 1.723.727 3.149 1.776 4.279 3.148 1.157 1.346 2.032 2.974 2.624 4.885.592 1.91.888 4.022.888 6.337V128h-7.225v-26.034c0-3.095-.714-5.49-2.14-7.185-1.399-1.722-3.538-2.583-6.418-2.583-2.125 0-4.117.51-5.973 1.533-1.83 1.023-3.525 2.409-5.086 4.158V128h-7.225V87.112h4.319c1.022 0 1.655.498 1.897 1.493l.565 4.44Zm65 10.051c0-1.669-.242-3.189-.726-4.561-.458-1.4-1.144-2.597-2.059-3.593a8.693 8.693 0 0 0-3.269-2.34c-1.292-.566-2.759-.848-4.4-.848-3.444 0-6.176 1.009-8.194 3.027-1.991 1.991-3.229 4.763-3.713 8.315h22.361Zm5.813 19.172a14.017 14.017 0 0 1-3.189 2.826 20.343 20.343 0 0 1-3.996 1.937 23.586 23.586 0 0 1-4.359 1.131 25.461 25.461 0 0 1-4.481.403c-2.825 0-5.435-.471-7.83-1.413a17.732 17.732 0 0 1-6.176-4.197c-1.722-1.857-3.068-4.144-4.036-6.862-.969-2.718-1.453-5.839-1.453-9.365 0-2.852.43-5.516 1.291-7.991.888-2.476 2.153-4.615 3.794-6.418 1.642-1.83 3.647-3.256 6.015-4.279 2.368-1.05 5.032-1.574 7.992-1.574 2.448 0 4.709.417 6.781 1.251 2.099.808 3.901 1.992 5.408 3.552 1.534 1.534 2.732 3.445 3.593 5.732.861 2.26 1.291 4.843 1.291 7.75 0 1.13-.121 1.883-.363 2.26-.242.377-.7.565-1.372.565h-27.326c.08 2.583.43 4.83 1.049 6.741.646 1.91 1.534 3.511 2.664 4.803a10.979 10.979 0 0 0 4.036 2.866c1.561.619 3.31.928 5.248.928 1.803 0 3.35-.202 4.641-.605 1.319-.431 2.449-.888 3.391-1.373a26.612 26.612 0 0 0 2.341-1.332c.646-.43 1.198-.645 1.655-.645.592 0 1.049.228 1.372.686l2.019 2.623Z" fill="#000"/><path d="M343.934 123.56c0-.7.122-1.359.364-1.978a5.572 5.572 0 0 1 1.049-1.614 5.175 5.175 0 0 1 1.615-1.09 4.908 4.908 0 0 1 1.978-.404c.699 0 1.358.135 1.977.404a5.175 5.175 0 0 1 1.615 1.09c.457.457.821.995 1.09 1.614.269.619.403 1.278.403 1.978 0 .727-.134 1.399-.403 2.018a5.323 5.323 0 0 1-1.09 1.574 4.651 4.651 0 0 1-1.615 1.05 4.907 4.907 0 0 1-1.977.404c-.7 0-1.359-.135-1.978-.404a4.651 4.651 0 0 1-1.615-1.05 5.75 5.75 0 0 1-1.049-1.574 5.492 5.492 0 0 1-.364-2.018Z" fill="#C91239"/></svg>