<svg width="256" height="360" viewBox="0 0 256 360" fill="none" xmlns="http://www.w3.org/2000/svg"><path d="M0 8C0 3.58172 3.58172 0 8 0H248C252.418 0 256 3.58172 256 8V352C256 356.418 252.418 360 248 360H8C3.58172 360 0 356.418 0 352V8Z" fill="#FAF8F6"/><path d="M187.648 150.564C187.68 150.83 187.31 150.818 187.303 151.057C185.487 148.342 183.291 146.045 180.293 144.605C180.058 144.492 179.555 144.445 179.708 144.116C179.885 143.737 180.215 144.14 180.435 144.253C182.953 145.533 184.914 147.473 186.721 149.586C187.012 149.926 187.338 150.239 187.648 150.568V150.564Z" fill="#8C8C8C"/><path d="M182.156 155.994C182.108 156.119 182.061 156.241 182.018 156.366C180.195 153.6 177.732 151.511 174.973 149.734C177.889 151.225 180.293 153.303 182.156 155.998V155.994Z" fill="#8C8C8C"/><path d="M136.147 200.294C135.888 200.505 135.707 200.497 135.707 200.114C135.707 199.758 135.903 199.476 136.221 199.375C137.09 199.101 137.223 198.393 137.388 197.649C137.738 196.073 138.143 194.511 138.512 192.939C138.602 192.555 138.791 192.313 139.176 192.137C140.19 191.671 141.176 191.147 142.17 190.642C142.897 190.27 143.144 189.484 143.647 188.917C143.907 188.627 144.095 188.275 144.339 187.919C145.105 188.698 145.749 189.547 146.673 190.094C146.971 190.27 146.716 190.423 146.598 190.505C145.019 191.581 144.496 193.306 143.883 194.95C143.545 195.853 143.038 196.44 142.127 196.808C140.543 197.446 139.031 198.256 137.549 199.105C137.274 198.885 137.392 199.511 137.282 199.707L137.043 199.324C137.219 199.5 137.145 199.59 137.011 200.016L136.237 200.274L136.182 200.239L136.155 200.29H136.147V200.294ZM138.626 197.563C138.504 197.555 138.461 197.614 138.473 197.727C138.359 197.708 138.575 197.246 138.791 197.489C138.822 197.45 138.449 197.77 138.481 197.735C138.532 197.68 138.587 197.626 138.638 197.571L138.748 197.481L138.661 197.426L138.63 197.563H138.626ZM138.881 197.317C138.65 197.52 138.567 196.816 138.665 196.698C139.679 195.544 139.978 194.637 141.125 193.604C141.325 193.424 141.266 193.13 141.101 192.993C140.854 192.794 141.903 191.804 142.06 191.667C142.429 191.342 143.18 191.202 143.742 191.127C143.918 191.104 144.272 191.429 144.413 191.558C144.508 191.331 143.926 191.64 143.698 191.44C143.51 191.276 143.29 191.397 143.105 191.499C142.59 191.777 142.256 192.238 142.036 192.747C141.726 193.471 142.064 194.406 141.569 195.001C140.885 195.83 139.302 196.249 138.877 197.317H138.881Z" fill="#8C8C8C"/><path d="M137.557 199.097C137.557 199.097 137.349 200.087 136.933 200.447C136.74 200.666 135.683 200.99 135.726 200.13L136.241 200.259L135.974 200.192C136.445 200.047 136.96 199.824 137.015 199.335L137.463 198.811C137.573 198.964 137.447 199.065 137.561 199.093H137.557V199.097Z" fill="#8C8C8C"/><path d="M137.294 199.32C137.286 199.187 137.333 199.093 137.475 199.058C137.585 199.261 137.506 199.335 137.294 199.32Z" fill="#8C8C8C"/><path d="M111.657 225.658C112.101 226.1 112.73 226.19 113.252 226.565C113.158 224.985 111.606 223.819 110.121 224.155C109.811 224.226 109.496 224.292 109.178 224.343C108.408 224.461 107.96 224.155 107.771 223.408C107.457 222.141 106.322 221.745 105.3 222.579C104.758 223.021 104.286 223.506 103.473 223.318C102.978 223.205 102.585 223.017 102.279 222.606C101.898 222.094 101.505 221.589 101.076 221.119C100.739 220.748 100.255 220.443 99.7956 220.748C98.3222 221.726 97.0531 221.049 95.7644 220.376C95.1986 220.079 94.6525 219.734 94.0631 219.5C92.5072 218.882 91.1596 218.048 90.0477 216.738C89.2186 215.756 87.9889 215.317 86.6569 215.595C85.9929 215.736 85.4114 216.096 85.325 216.89C85.3014 217.121 85.215 217.324 84.9517 217.328C84.6217 217.332 84.6021 217.055 84.5588 216.824C84.4881 216.432 84.4763 216.026 84.3663 215.65C84.0795 214.68 83.4351 214.519 82.7083 215.231C82.559 215.376 82.4647 215.576 82.3586 215.756C82.2289 215.971 82.0796 216.194 81.7967 216.061C81.4981 215.924 81.6278 215.666 81.6985 215.439C81.9657 214.555 81.8125 214.296 80.9206 214.152C80.8931 214.148 80.8656 214.148 80.842 214.14C80.3155 214.05 78.8264 214.335 78.3588 214.617C77.8952 214.895 77.4198 214.965 76.9169 214.723C75.5968 214.085 74.4338 213.263 73.7265 211.941C73.5065 211.53 73.2354 211.44 72.7875 211.421C70.3594 211.307 68.1709 210.454 66.1475 209.148C65.8646 208.964 65.6249 208.69 65.4285 208.408C65.1259 207.974 65.3106 207.598 65.6956 207.313C65.8292 207.215 65.9982 207.199 66.1396 207.324C66.2653 207.438 66.23 207.559 66.1318 207.669C65.8135 208.017 66.0532 208.271 66.3046 208.467C68.1788 209.934 70.3044 210.752 72.6932 210.877C73.0783 210.896 73.2158 210.732 73.1568 210.353C73.1097 210.032 73.1568 209.707 73.3376 209.433C73.5497 209.105 73.6087 208.486 74.1902 208.694C74.7206 208.886 74.862 209.418 74.8149 209.954C74.7992 210.13 74.7402 210.357 74.6184 210.466C73.8405 211.147 74.308 211.753 74.752 212.297C75.3964 213.08 76.1743 213.737 77.1055 214.175C77.6634 214.437 78.4689 214.116 78.74 213.584C78.8893 213.287 78.681 213.15 78.5474 212.962C78.3667 212.708 78.0602 212.422 78.4414 212.152C78.736 211.945 79.0229 212.191 79.1761 212.442C79.6515 213.224 80.4491 213.338 81.231 213.475C81.5806 213.537 82.005 213.541 82.1464 213.87C82.4097 214.476 82.7318 214.508 83.278 214.242C83.8398 213.968 84.3231 214.202 84.661 214.691C84.8535 214.973 84.991 215.29 85.2032 215.681C86.6176 214.429 88.1303 214.758 89.6469 215.454C90.472 215.834 90.9946 216.565 91.5996 217.195C91.8393 217.446 92.0475 217.708 92.3815 217.86C94.0081 218.596 95.6308 219.335 97.2417 220.098C97.8193 220.372 98.3222 220.384 98.9076 220.083C100.263 219.378 101.104 219.582 102.039 220.783C102.412 221.264 102.742 221.785 103.072 222.297C103.43 222.853 103.835 222.896 104.318 222.461C104.613 222.195 104.903 221.918 105.225 221.683C106.42 220.818 108.329 221.558 108.538 223.005C108.624 223.612 108.887 223.623 109.323 223.498C110.18 223.252 110.997 223.115 111.889 223.498C113.362 224.128 113.991 225.294 114.254 226.753C114.301 227.027 114.286 227.297 114.034 227.473C113.775 227.649 113.504 227.563 113.296 227.387C112.695 226.878 111.96 226.522 111.52 225.834C111.567 225.775 111.618 225.716 111.665 225.658H111.657ZM73.9073 210.431C74.1941 210.094 74.3748 209.836 74.0723 209.421C73.8955 209.754 73.7501 210.02 73.9073 210.431Z" fill="#8C8C8C"/><path d="M118.58 199.594C119.126 200.02 119.649 200.482 120.223 200.865C120.608 201.123 121.052 201.264 120.977 200.478C120.953 200.224 121.083 200.012 121.374 199.961C121.68 199.907 121.888 200.075 122.038 200.31C122.56 201.119 123.154 201.843 123.924 202.45C124.992 203.295 126.092 204.065 127.35 204.617C128.128 204.957 128.902 205.028 129.688 204.813C131.357 204.351 132.768 204.676 133.99 205.943C135.302 207.309 136.87 208.295 138.732 208.768C138.909 208.815 139.113 208.874 139.239 208.995C140.213 209.969 141.659 210.079 142.724 210.889C142.94 211.053 143.231 211.221 143.545 211.116C144.048 210.939 144.339 211.217 144.633 211.558C145.089 212.082 145.549 212.606 146.39 212.368C146.806 212.25 146.885 212.544 146.838 212.884C146.763 213.404 146.162 213.85 145.588 213.76C145.309 213.717 144.987 213.623 144.783 213.443C143.408 212.238 141.726 211.589 140.123 210.799C139.982 210.728 139.801 210.677 139.714 210.56C138.913 209.484 137.616 209.257 136.52 208.698C135.298 208.076 134.218 207.258 133.235 206.315C132.391 205.505 131.42 205.18 130.308 205.544C128.501 206.139 126.941 205.521 125.464 204.605C124.222 203.839 122.989 203.037 122.002 201.929C121.9 201.812 121.814 201.659 121.621 201.812C120.883 202.391 120.27 201.882 119.751 201.483C119.173 201.037 118.969 200.259 118.376 199.778L118.588 199.594H118.58Z" fill="#8C8C8C"/><path d="M105.98 213.78C105.925 214.703 105.485 215.02 104.884 214.648C103.799 213.975 102.577 213.553 101.54 212.798C101.304 212.626 101.061 212.461 100.809 212.313C99.7327 211.671 99.7013 211.683 98.8997 212.641C98.7819 212.786 98.664 212.939 98.5147 213.044C98.1965 213.267 97.8821 213.623 97.4499 213.42C97.0217 213.22 97.1945 212.774 97.167 212.418C97.0924 211.565 97.2692 210.728 97.3124 209.879C97.3242 209.621 97.3949 209.32 97.1042 209.163C96.7977 208.995 96.5266 209.179 96.2987 209.347C95.9569 209.598 95.6622 209.911 95.3125 210.153C94.0749 211.022 92.8883 210.806 92.1379 209.5C91.8982 209.085 91.7332 209.128 91.415 209.285C90.6488 209.656 89.8827 210.024 89.1086 210.384C88.4407 210.693 87.9967 210.533 87.8513 209.817C87.7178 209.163 87.2934 208.819 86.8102 208.483C85.7611 207.759 84.5981 207.195 83.6355 206.342C83.3762 206.116 83.1208 206.131 82.8458 206.319C82.0561 206.863 81.227 206.804 80.3784 206.46C78.85 205.842 77.2902 204.785 76.4022 203.737C76.803 203.749 77.0191 204.038 77.2784 204.242C78.4139 205.122 79.6004 205.893 81.0188 206.252C81.4549 206.362 81.8793 206.299 82.2643 206.139C82.669 205.971 82.9912 205.697 82.669 205.18C82.5747 205.028 82.4843 204.84 82.4804 204.664C82.4725 204.335 82.559 204.007 82.944 203.925C83.3055 203.846 83.5727 204.109 83.5766 204.386C83.6119 205.947 84.9282 206.331 85.934 206.996C86.5783 207.422 87.2699 207.774 87.8553 208.283C88.0989 208.494 88.3857 208.706 88.4132 209.034C88.4761 209.781 88.7354 209.781 89.3287 209.437C90.2913 208.882 91.4071 208.623 92.3422 207.993C92.4837 207.896 92.6605 207.907 92.7862 208.029C92.9355 208.177 92.9512 208.381 92.8255 208.541C92.4758 208.991 92.6526 209.304 93.0259 209.621C93.4463 209.977 93.8902 210.169 94.4128 209.895C94.8136 209.688 95.1829 209.421 95.4894 209.081C95.7644 208.78 96.1023 208.561 96.4913 208.447C97.3478 208.193 97.9646 208.647 98 209.535C98.0354 210.415 97.6778 211.26 97.7839 212.144C97.7996 212.289 97.7093 212.461 97.9096 212.614C98.33 212.422 98.5068 211.992 98.7662 211.648C99.0687 211.252 99.3084 211.143 99.8741 211.393C101.387 212.062 102.566 213.275 104.129 213.839C104.726 214.054 105.273 214.5 105.976 213.776L105.98 213.78Z" fill="#8C8C8C"/><path d="M117.394 207.673C118.36 208.025 119.272 208.502 120.38 208.373C120.949 208.306 121.437 208.713 121.664 209.285C121.928 209.942 122.403 210.45 122.855 210.967C123.299 211.475 123.888 211.749 124.568 211.55C125.11 211.389 125.216 211.652 125.287 212.086C125.574 213.823 127.051 214.406 128.509 213.365C129.086 212.954 129.703 212.692 130.43 212.684C131.047 212.677 131.507 212.876 131.805 213.443C132.108 214.019 132.619 214.414 133.114 214.821C133.33 214.997 133.691 215.204 133.416 215.513C133.196 215.76 132.87 215.576 132.622 215.396C132.1 215.02 131.581 214.617 131.287 214.046C130.945 213.381 130.454 213.283 129.829 213.49C129.53 213.588 129.208 213.698 128.968 213.886C127.841 214.77 126.705 214.629 125.546 213.972C125.287 213.823 125.075 213.619 124.922 213.365C124.517 212.696 124.065 212.281 123.35 211.972C122.321 211.522 121.735 210.615 121.11 209.77C120.812 209.367 120.533 209.124 120.006 209.159C119.252 209.21 118.784 208.592 118.164 208.314C117.849 208.173 117.547 208.005 117.24 207.849C117.343 207.833 117.421 207.798 117.394 207.669V207.673Z" fill="#8C8C8C"/><path d="M107.744 216.773C108.545 215.99 109.488 215.529 110.451 215.094C110.726 214.969 111.04 214.954 111.276 215.18C111.524 215.419 111.422 215.724 111.339 216.002C111.264 216.256 111.146 216.499 111.095 216.757C111.017 217.16 111.107 217.469 111.63 217.36C112.019 217.278 112.196 217.36 112.239 217.814C112.329 218.796 112.946 219.183 113.897 218.932C114.078 218.885 114.25 218.811 114.423 218.749C115.669 218.275 116.046 218.439 116.537 219.711C116.726 220.2 116.997 220.591 117.472 220.849C118.01 221.147 118.443 221.1 118.914 220.677C120.057 219.644 121.303 219.715 122.391 220.846C122.937 221.413 123.323 222.148 124.124 222.454C124.293 222.516 124.324 222.696 124.238 222.86C124.132 223.064 123.951 223.068 123.755 222.997C123.338 222.841 123.051 222.528 122.784 222.195C122.254 221.538 121.763 220.857 120.902 220.537C120.344 220.329 119.92 220.314 119.441 220.716C118.136 221.812 116.918 221.495 116.172 219.914C115.673 218.858 115.574 218.815 114.47 219.21C113.083 219.703 112.376 219.398 111.862 218.076C111.795 217.907 111.732 217.849 111.547 217.802C110.695 217.594 110.569 217.344 110.742 216.436C110.789 216.19 111.021 215.877 110.793 215.689C110.526 215.47 110.255 215.767 110.007 215.893C109.532 216.131 109.068 216.393 108.604 216.652C108.353 216.788 108.109 216.945 107.744 216.785V216.773Z" fill="#8C8C8C"/><path d="M141.486 204.339C141.875 204.723 142.323 205.028 142.889 204.899C144.284 204.57 145.384 205.294 146.464 205.924C148.209 206.941 149.643 208.424 151.474 209.324C151.717 209.441 151.871 209.645 151.737 209.903C151.556 210.255 151.242 210.169 150.979 210.008C150.008 209.406 149.038 208.799 148.166 208.052C147.069 207.113 145.903 206.288 144.555 205.736C144.115 205.556 143.706 205.435 143.184 205.505C142.48 205.599 141.891 205.149 141.353 204.711C141.396 204.586 141.439 204.465 141.486 204.339Z" fill="#8C8C8C"/><path d="M98.1768 198.025C97.171 197.301 96.1534 197.36 95.0925 197.919C94.6485 198.154 94.1613 198.314 93.682 198.471C93.1437 198.647 92.6015 198.627 92.2047 198.181C91.8432 197.774 91.965 197.293 92.1379 196.828C92.4404 196.006 93.0494 195.54 93.8745 195.341C94.1378 195.278 94.4521 195.298 94.5385 195.619C94.6328 195.975 94.3303 196.069 94.0631 196.119C93.4659 196.229 93.0416 196.542 92.8098 197.109C92.7194 197.328 92.5819 197.555 92.7823 197.774C92.9669 197.974 93.2223 197.97 93.4541 197.896C94.0828 197.7 94.6996 197.477 95.3243 197.274C96.3616 196.937 97.3517 196.961 98.2515 197.653C98.224 197.774 98.2004 197.9 98.1768 198.025Z" fill="#8C8C8C"/><path d="M107.033 195.967C105.748 195.916 104.758 195.188 103.772 194.496C103.406 194.242 103.065 194.089 102.617 194.085C101.748 194.073 101.033 193.67 100.456 193.068C99.9881 192.583 100.137 191.804 100.672 191.581C100.849 191.507 101.033 191.475 101.186 191.644C101.344 191.82 101.206 191.906 101.084 192.023C100.684 192.407 101.025 192.634 101.296 192.841C101.674 193.126 102.169 193.459 102.534 193.486C103.732 193.584 104.389 194.5 105.28 195.044C105.846 195.388 106.385 195.705 107.06 195.716C106.966 195.791 106.986 195.881 107.033 195.971V195.967Z" fill="#8C8C8C"/><path d="M98.1768 198.025C98.2004 197.9 98.2279 197.778 98.2515 197.653C99.0215 198.26 99.493 199.007 99.3909 200.028C99.3791 200.157 99.3909 200.294 99.3987 200.423C99.3987 200.666 99.5362 200.85 99.7602 200.877C99.9999 200.904 100.012 200.658 100.075 200.49C100.102 200.415 100.114 200.337 100.133 200.259C100.192 200.028 100.082 199.621 100.483 199.691C100.794 199.746 100.601 200.071 100.605 200.294C100.617 201.104 101.277 201.499 101.788 201.972C101.957 202.129 102.188 202.219 102.393 202.336C102.381 202.438 102.369 202.536 102.353 202.637C101.76 202.489 101.34 202.109 100.947 201.663C100.676 201.358 100.574 200.869 99.8702 201.17C99.4144 201.366 99.1237 200.673 99.1473 200.251C99.2023 199.312 98.7622 198.647 98.1729 198.017V198.025H98.1768Z" fill="#8C8C8C"/><path d="M117.394 207.673C117.421 207.798 117.343 207.837 117.24 207.853C116.411 207.571 115.661 207.113 114.82 206.851C114.089 206.624 113.398 206.507 112.643 206.726C112.015 206.91 111.044 206.44 110.644 205.838L110.632 205.85C111.477 206.221 112.286 206.573 113.288 206.35C114.199 206.147 115.02 206.742 115.873 207.008C116.4 207.172 116.891 207.45 117.394 207.677V207.673Z" fill="#8C8C8C"/><path d="M102.361 202.645C102.373 202.544 102.385 202.446 102.4 202.344C103.257 202.739 104 202.426 104.719 201.976C105.178 201.687 105.638 201.573 106.133 201.89C106.259 201.972 106.33 202.09 106.282 202.223C106.223 202.395 106.086 202.356 105.964 202.281C105.591 202.047 105.324 202.332 105.017 202.461C104.157 202.829 103.304 203.365 102.361 202.649V202.645Z" fill="#8C8C8C"/><path d="M107.033 195.967C106.986 195.877 106.966 195.787 107.06 195.713C108.337 196.186 109.72 196.245 111.013 196.655C109.626 196.738 108.294 196.534 107.033 195.967Z" fill="#8C8C8C"/><path d="M141.486 204.339C141.443 204.465 141.4 204.59 141.353 204.711C141.011 204.484 140.791 204.183 140.712 203.662C141.07 203.866 141.313 204.058 141.482 204.339H141.486Z" fill="#8C8C8C"/><path d="M111.657 225.658C111.61 225.716 111.563 225.775 111.512 225.834C111.292 225.736 111.139 225.58 111.064 225.353L111.103 225.302C111.335 225.349 111.512 225.478 111.653 225.662L111.657 225.658Z" fill="#8C8C8C"/><path d="M110.64 205.838L110.494 205.826C110.537 205.834 110.581 205.842 110.628 205.85L110.64 205.838Z" fill="#8C8C8C"/><path d="M110.475 224.641L110.439 224.637L110.467 224.653L110.475 224.641Z" fill="#8C8C8C"/><path d="M110.64 224.805C110.537 224.797 110.486 224.742 110.479 224.641L110.467 224.653C110.522 224.707 110.573 224.762 110.628 224.817L110.64 224.805Z" fill="#8C8C8C"/><path d="M110.624 224.817C110.675 224.871 110.726 224.93 110.777 224.985L110.789 224.977C110.647 224.997 110.608 224.93 110.64 224.805L110.628 224.817H110.624Z" fill="#8C8C8C"/><path d="M110.915 225.161C110.797 225.149 110.734 225.102 110.785 224.977L110.777 224.985C110.828 225.04 110.879 225.094 110.93 225.153L110.919 225.165L110.915 225.161Z" fill="#8C8C8C"/><path d="M111.064 225.349C110.962 225.329 110.891 225.282 110.919 225.161L110.93 225.149C111.029 225.149 111.095 225.192 111.103 225.298L111.064 225.349Z" fill="#8C8C8C"/><path d="M74.0723 209.421C73.8955 209.754 73.7501 210.02 73.9073 210.431C74.1941 210.094 74.3748 209.836 74.0723 209.421Z" fill="#8C8C8C"/><path d="M134.709 172.767C133.357 173.318 129.774 174.778 129.334 175.001C129.86 174.734 134.591 172.86 134.709 172.767Z" fill="#8C8C8C"/><path d="M146.661 190.098C145.738 189.551 145.093 188.702 144.327 187.923C144.083 188.279 143.895 188.631 143.636 188.921C143.133 189.488 142.889 190.274 142.158 190.646C141.164 191.151 140.178 191.679 139.164 192.141C138.779 192.317 138.591 192.555 138.5 192.943C138.127 194.511 137.722 196.076 137.377 197.653C137.212 198.396 137.078 199.105 136.21 199.378C135.895 199.48 135.695 199.762 135.695 200.118L136.925 200.466C137.188 200.165 137.42 199.832 137.341 199.367L137.294 199.097C137.353 199.101 137.392 199.116 137.416 199.132C137.404 199.116 137.388 199.093 137.373 199.062L137.557 199.097C139.039 198.244 140.532 197.45 142.115 196.812C143.03 196.444 143.537 195.861 143.871 194.954C144.484 193.31 145.011 191.585 146.586 190.509C146.704 190.427 146.959 190.274 146.661 190.098Z" fill="#8C8C8C"/><path d="M137.416 199.132C137.468 199.164 137.46 199.192 137.416 199.132Z" fill="#8C8C8C"/><path d="M134.709 172.767C134.976 172.657 135.157 172.587 135.208 172.563C135.043 172.63 134.838 172.661 134.709 172.767Z" fill="#8C8C8C"/><path d="M181.782 157.649C185.354 153.921 189.004 150.263 192.528 146.491C198.999 139.566 205.592 132.759 212.103 125.873C214.794 123.029 216.947 119.852 217.807 115.994C218.633 112.297 216.751 109.774 212.79 110.016C209.627 110.208 207.101 111.698 205.089 114.054C199.683 120.384 194.312 126.745 188.929 133.095C186.403 136.08 183.9 139.081 181.35 142.047C180.843 142.637 181.02 142.86 181.633 143.076C182.163 143.263 182.643 143.553 183.118 143.85C185.193 145.153 186.745 146.949 188.077 148.968C188.67 149.867 188.65 150.087 187.648 150.564C187.68 150.834 187.31 150.822 187.303 151.057C186.505 152.023 186.525 152.004 185.703 151.049C183.818 148.858 181.602 147.039 179.197 145.443C179.012 145.321 178.792 145.059 178.604 145.4C178.435 145.697 178.773 145.736 178.922 145.81C179.853 146.284 180.71 146.867 181.523 147.512C183.091 148.756 184.505 150.153 185.77 151.706C186.383 152.461 185.672 152.727 185.315 153.103C184.859 153.58 184.682 153.033 184.478 152.794C183.766 151.968 183.095 151.112 182.254 150.4C180.792 149.159 179.173 148.13 177.645 146.976C177.511 146.874 177.378 146.796 177.256 147.011C177.366 147.281 177.649 147.352 177.861 147.489C180.309 149.089 182.474 150.986 184.301 153.279C184.886 154.011 184.171 154.183 183.888 154.523C183.491 155 183.291 154.504 183.118 154.269C181.417 151.941 179.319 150.051 176.832 148.588C176.624 148.463 176.372 148.005 176.132 148.365C175.94 148.659 176.407 148.737 176.604 148.862C178.965 150.36 180.989 152.223 182.67 154.453C183.311 155.298 183.212 155.599 182.156 155.994V155.967C182.108 156.092 182.065 156.217 182.018 156.338C181.625 156.957 181.307 156.816 180.796 156.37C178.777 154.601 176.737 152.845 174.486 151.358C174.003 151.041 173.724 151.061 173.323 151.538C169.268 156.366 165.178 161.159 161.112 165.975C160.758 166.393 160.467 166.585 159.913 166.311C157.709 165.22 155.305 164.727 152.959 164.054C152.499 163.921 152.071 163.96 151.647 164.191C149.753 165.22 147.785 166.1 145.851 167.047C142.221 168.827 138.5 170.411 134.815 172.07L129.42 174.292C129.357 174.382 129.232 174.457 129.043 174.535C127.688 175.09 126.336 175.654 125.004 176.26C117.456 179.691 109.94 183.201 102.357 186.561C92.7155 190.838 83.3055 195.595 73.7815 200.11C69.2042 202.277 64.5837 204.343 59.7667 205.928C57.0872 206.808 54.3997 207.684 51.559 207.927C51.2722 207.95 50.9933 208.013 50.7261 207.79C48.0308 205.517 45.2255 203.349 43.5006 200.161C43.426 200.024 43.3552 199.852 43.1667 199.856C42.9388 199.864 42.8995 200.071 42.8209 200.239C42.5537 200.818 42.3062 201.405 42.0115 201.968C40.546 204.758 39.9449 207.661 40.876 210.752C41.2847 212.101 41.7994 213.314 43.1392 214.148C44.2353 214.828 45.4455 215.411 46.4356 216.401C43.7521 218.256 40.825 219.621 38.3025 221.765C39.2651 222.172 40.106 222.528 40.9703 222.892C39.9213 223.772 39.1198 224.82 38 225.611C38.1886 225.716 38.275 225.779 38.3693 225.818C40.5067 226.718 42.6362 227.649 44.7893 228.514C60.8865 234.985 77.1409 241.061 93.2616 247.473C95.1593 248.228 97.1356 248.815 98.9115 249.867C99.2926 250.094 99.6659 249.993 100.063 249.856C100.75 249.625 101.143 248.999 101.807 248.705C104.389 247.563 106.939 246.35 109.485 245.133C119.217 240.489 129.027 236.002 138.72 231.272C141.585 229.875 144.535 228.651 147.427 227.309C152.213 225.087 156.986 222.841 161.756 220.591C171.315 216.084 180.867 211.565 190.422 207.054C190.422 207.054 195.424 204.629 196.343 204.253C197.263 203.878 208.822 197.105 209.655 196.648C210.488 196.19 211.281 195.317 211.993 194.777C212.653 194.273 211.289 193.232 210.896 192.923C212.492 191.921 213.835 190.979 213.933 190.626C214.165 189.793 211.038 188.467 210.684 188.232C211.973 187.379 213.132 186.605 213.411 186.401C214.04 185.939 193.738 178.842 193.738 178.842C191.75 178.154 189.762 177.473 187.786 176.749C185.087 175.763 182.423 174.684 179.724 173.705C176.604 172.575 173.398 171.683 170.302 170.474C169.85 170.298 169.846 170.165 170.156 169.84C174.038 165.779 177.897 161.702 181.782 157.649ZM43.0213 213.295C42.2198 212.794 42.0115 211.769 41.7836 210.869C41.2297 208.686 41.4222 206.522 41.819 204.324C42.0508 203.037 42.762 202.019 43.1667 200.842V200.85C43.2845 200.904 43.3474 200.912 43.371 200.947C47.4454 206.511 52.8674 210.568 58.5448 214.316C65.1888 218.706 72.4064 221.882 80.0601 224.077C81.3881 224.457 82.7279 224.821 84.0756 225.134C86.0519 225.587 88.0832 225.646 90.083 225.939C92.3383 226.272 94.6014 226.28 96.8645 226.057C97.4146 226.002 97.6032 226.069 97.6857 226.702C98.0589 229.609 98.6247 232.469 100.621 234.809C101.249 235.544 101.972 236.166 102.695 236.796C102.876 236.953 103.233 237.082 103.061 237.411C102.915 237.684 102.628 237.497 102.408 237.469C99.9134 237.145 97.5207 236.413 95.1318 235.673C92.963 235.001 90.8217 234.198 88.6136 233.69C86.5744 233.22 84.6178 232.52 82.6926 231.785C78.0799 230.028 73.4319 228.353 68.8663 226.468C63.9119 224.418 59.1263 222.047 54.3486 219.633C51.6887 218.291 49.0405 216.929 46.4749 215.415C45.3119 214.731 44.1646 214.011 43.0213 213.295ZM211.494 194.324C211.619 194.656 210.951 195.153 209.364 196.276C207.777 197.399 189.684 206.679 189.684 206.679C175.457 213.385 161.23 220.083 147.003 226.788C144.276 228.076 141.577 229.429 138.846 230.716C126.485 236.55 114.121 242.368 101.752 248.185C101.198 248.443 100.613 248.627 100.051 248.862C99.8191 248.96 99.6502 248.842 99.4498 248.768C92.8176 246.342 86.2522 243.741 79.6711 241.186C67.2751 236.374 54.938 231.413 42.4594 226.812C41.2729 226.374 39.9999 226.155 38.888 225.411C39.717 224.695 40.5342 223.96 41.3829 223.267C41.764 222.958 42.1373 223.31 42.4751 223.439C45.5083 224.609 48.5298 225.806 51.559 226.992C67.6169 233.271 83.6748 239.547 99.8113 245.623C100.381 245.838 100.856 245.889 101.32 245.431C101.446 245.306 101.642 245.251 101.811 245.173C118.168 237.594 134.524 230.02 150.877 222.438C163.037 216.8 175.197 211.159 187.35 205.497C187.739 205.38 204.626 196.393 205.435 196.065C205.867 195.889 208.213 194.582 210.331 193.275C210.543 193.424 211.384 194.03 211.494 194.32V194.324ZM212.7 190.486C212.794 191.053 207.761 193.608 205.765 194.601C203.769 195.595 186.784 205.216 186.784 205.216C177.099 209.699 167.41 214.171 157.733 218.674C139.239 227.281 120.757 235.916 102.267 244.539C101.167 245.051 100.157 245.145 98.9155 244.641C83.5412 238.373 68.0845 232.305 52.6159 226.268C48.4708 224.652 44.3179 223.06 40.1649 221.464C40.0667 221.425 39.9409 221.421 39.9449 221.299C39.9527 221.115 40.0313 220.994 40.2238 220.877C41.7286 219.969 43.2177 219.038 44.7068 218.107C45.2019 217.794 45.7519 217.536 46.1724 217.144C46.7578 216.597 47.2803 216.749 47.8461 217.101C49.3116 218.017 50.7693 218.94 52.3252 219.703C55.6727 221.342 58.9809 223.072 62.3717 224.617C67.6798 227.035 73.145 229.077 78.6339 231.053C81.0738 231.933 83.5412 232.743 86.0047 233.533C91.0378 235.145 96.1219 236.612 101.226 237.993C105.858 239.245 110.361 238.729 114.604 236.425C118.396 234.363 122.395 232.751 126.32 230.979C140.791 224.441 155.089 217.536 169.449 210.763C174.38 208.439 179.362 206.217 184.332 203.971C184.332 203.971 185.244 203.467 186.69 202.786C188.136 202.105 205.686 191.452 206.696 190.826C207.172 190.533 208.559 189.629 209.953 188.709C210.323 188.882 212.613 189.957 212.7 190.482V190.486ZM170.101 170.842C175.716 172.888 181.319 174.981 186.918 177.074C188.929 177.825 190.945 178.569 193 179.194C193.121 179.249 193.318 179.316 193.628 179.39C195.463 179.824 211.977 186.28 211.977 186.28C212.271 186.871 204.571 191.886 201.726 193.537C198.881 195.188 183.291 203.447 183.291 203.447C176.183 206.675 169.056 209.844 162.012 213.193C145.887 220.853 129.684 228.361 113.527 235.963C111.465 236.933 109.284 237.516 107.005 237.692C106.007 237.766 105.147 237.43 104.318 236.863C100.959 234.57 99.4891 231.186 98.7112 227.391C98.5383 226.561 98.7308 225.759 99.0844 224.86H99.0765C97.2142 225.122 95.4579 225.2 93.7017 225.266C89.2069 225.435 84.8417 224.715 80.5355 223.459C73.8248 221.499 67.4833 218.741 61.523 215.083C58.4348 213.189 55.2405 211.468 52.4431 209.14C52.3252 209.042 52.1523 208.995 52.117 208.733C52.502 208.514 52.9656 208.592 53.386 208.514C56.8671 207.88 60.1636 206.651 63.4797 205.486C68.1198 203.854 72.3396 201.327 76.7558 199.214C84.606 195.454 92.4522 191.687 100.381 188.087C107.94 184.656 115.523 181.268 123.059 177.786C125.142 176.824 127.283 176.018 129.334 175.001C129.774 174.778 133.357 173.314 134.709 172.767C134.838 172.661 135.043 172.63 135.208 172.563C139.915 170.642 144.496 168.451 149.026 166.155C149.667 165.83 150.295 165.47 150.888 165.067C151.659 164.539 152.46 164.316 153.372 164.586C155.179 165.122 157.022 165.568 158.786 166.217C160.408 166.816 160.365 166.906 159.289 168.181C154.24 174.155 149.195 180.133 144.138 186.1C143.836 186.46 143.639 186.773 143.895 187.23C143.954 187.332 143.985 187.516 143.93 187.598C143.305 188.569 142.885 189.719 141.805 190.321C140.83 190.865 139.824 191.362 138.819 191.847C138.347 192.074 138.092 192.395 137.974 192.911C137.569 194.699 137.094 196.468 136.713 198.259C136.591 198.831 136.119 198.901 135.781 199.148C135.278 199.511 135.051 199.938 135.33 200.509C135.601 201.065 136.115 201.198 136.689 201.084C137.054 201.01 137.306 200.759 137.432 200.419C137.762 199.523 138.469 199.034 139.27 198.631C140.532 197.997 141.789 197.356 143.058 196.741C143.47 196.546 143.738 196.26 143.895 195.838C144.233 194.914 144.586 194.003 144.936 193.087C145.384 191.91 146.578 191.511 147.427 190.756C147.576 190.623 147.82 190.771 148.016 190.877C149.388 191.597 149.498 191.515 150.551 190.345C152.067 188.662 153.651 187.047 155.218 185.415C159.772 180.669 164.334 175.935 168.883 171.186C169.245 170.806 169.52 170.63 170.101 170.842ZM137.416 199.132C137.468 199.164 137.46 199.192 137.416 199.132C137.388 199.116 137.353 199.101 137.294 199.097L137.341 199.367C137.42 199.832 137.188 200.165 136.925 200.466L135.695 200.118C135.695 199.762 135.895 199.48 136.21 199.378C137.078 199.105 137.212 198.396 137.377 197.653C137.722 196.076 138.127 194.511 138.5 192.943C138.591 192.555 138.779 192.317 139.164 192.141C140.178 191.679 141.164 191.151 142.158 190.646C142.889 190.274 143.133 189.488 143.636 188.921C143.895 188.631 144.083 188.279 144.327 187.923C145.093 188.702 145.738 189.551 146.661 190.098C146.959 190.274 146.704 190.427 146.586 190.509C145.011 191.585 144.484 193.31 143.871 194.954C143.537 195.861 143.03 196.444 142.115 196.812C140.532 197.45 139.039 198.244 137.557 199.097L137.373 199.062C137.388 199.093 137.404 199.116 137.416 199.132Z" fill="#8C8C8C"/></svg>