<?xml version="1.0" encoding="UTF-8"?>
<svg width="39px" height="27px" viewBox="0 0 39 27" version="1.1" xmlns="http://www.w3.org/2000/svg" xmlns:xlink="http://www.w3.org/1999/xlink">
    <title>icn_newsletter-general2</title>
    <g id="Newsletter_final_update_March2023" stroke="none" stroke-width="1" fill="none" fill-rule="evenodd">
        <g id="Newsletter_icon" transform="translate(-40.000000, -53.000000)">
            <g id="icn_newsletter-general2" transform="translate(41.000000, 54.000000)">
                <g id="Group-7" stroke="#1F2446" stroke-linecap="round" stroke-linejoin="round" stroke-width="0.655906217">
                    <polygon id="Stroke-1" points="0 5.2755434 36.9999184 5.65845075e-05 23.009392 22 15.3255666 13.6938469 11.3312877 19.4183884 10.1749601 9.65303409"></polygon>
                    <line x1="10.174995" y1="9.65309067" x2="36.9999534" y2="0" id="Stroke-3"></line>
                    <line x1="15.3255316" y1="13.6939035" x2="37" y2="0" id="Stroke-5"></line>
                </g>
                <line x1="11.4260065" y1="19.3443533" x2="17.0810418" y2="15.7714943" id="Stroke-8" stroke="#1F2446" stroke-width="0.655906217" stroke-linecap="round" stroke-linejoin="round"></line>
                <line x1="7.08899113" y1="5.4927487" x2="13.7350478" y2="8.30477239" id="Stroke-9" stroke="#1F2446" stroke-width="0.655906217" stroke-linecap="round" stroke-linejoin="round"></line>
                <line x1="9.16388746" y1="5.28260515" x2="15.0814543" y2="7.7438049" id="Stroke-10" stroke="#1F2446" stroke-width="0.655906217" stroke-linecap="round" stroke-linejoin="round"></line>
                <line x1="17.8142298" y1="12.5640467" x2="23.4247327" y2="18.6750604" id="Stroke-11" stroke="#1F2446" stroke-width="0.655906217" stroke-linecap="round" stroke-linejoin="round"></line>
                <line x1="18.9653697" y1="11.7687515" x2="24.1530477" y2="17.4191672" id="Stroke-12" stroke="#1F2446" stroke-width="0.655906217" stroke-linecap="round" stroke-linejoin="round"></line>
                <g id="Group-38" transform="translate(2.356264, 15.763768)" stroke="#1F2446" stroke-linecap="round" stroke-linejoin="round" stroke-width="0.569900374">
                    <path d="M7.45762929,4.29194607 C7.45762929,4.29194607 7.27034252,4.42124499 6.94428729,4.61140219" id="Stroke-32"></path>
                    <path d="M5.8646585,5.08514111 C4.35474157,5.78947985 2.20044611,6.02787306 0.643735762,3.73623177 C-1.21142083,1.00517717 1.36526818,-0.610392811 3.0523369,0.217190695 C4.73947931,1.04470162 6.44106505,4.34697901 1.28796692,9.03623177" id="Stroke-34" stroke-dasharray="1.213689804077148,1.213689804077148"></path>
                </g>
                <line x1="20.116498" y1="10.9734562" x2="23.154612" y2="14.1822505" id="Stroke-13" stroke="#1F2446" stroke-width="0.655906217" stroke-linecap="round" stroke-linejoin="round"></line>
                <line x1="22.1473048" y1="9.63302581" x2="26.3580673" y2="14.2193133" id="Stroke-14" stroke="#1F2446" stroke-width="0.655906217" stroke-linecap="round" stroke-linejoin="round"></line>
                <line x1="23.2984448" y1="8.83773055" x2="27.0424328" y2="12.9156628" id="Stroke-15" stroke="#1F2446" stroke-width="0.655906217" stroke-linecap="round" stroke-linejoin="round"></line>
                <line x1="24.4495847" y1="8.04244661" x2="27.8436084" y2="11.7392257" id="Stroke-16" stroke="#1F2446" stroke-width="0.655906217" stroke-linecap="round" stroke-linejoin="round"></line>
                <line x1="5.4159708" y1="5.88072603" x2="10.4119962" y2="8.05809789" id="Stroke-17" stroke="#1F2446" stroke-width="0.655906217" stroke-linecap="round" stroke-linejoin="round"></line>
                <polygon id="Fill-18" fill="#1F2348" points="16.729667 7.25493738 11.4259949 5.05255518 16.7290841 3.99634876 20.8957804 5.82493371"></polygon>
                <polygon id="Stroke-19" stroke="#1F2446" stroke-width="0.655906217" stroke-linecap="round" stroke-linejoin="round" points="16.729667 7.25493738 11.4259949 5.05255518 16.7290841 3.99634876 20.8957804 5.82493371"></polygon>
                <polygon id="Fill-20" fill="#1F2348" points="28.219616 10.2082413 25.5090834 7.34789441 28.9416942 5.1791234 30.6436023 7.08681349"></polygon>
                <polygon id="Stroke-21" stroke="#1F2446" stroke-width="0.655906217" stroke-linecap="round" stroke-linejoin="round" points="28.219616 10.2082413 25.5090834 7.34789441 28.9416942 5.1791234 30.6436023 7.08681349"></polygon>
                <line x1="15.0287381" y1="7.80057047" x2="15.4812902" y2="12.0445217" id="Stroke-22" stroke="#1F2446" stroke-width="0.655906217" stroke-linecap="round" stroke-linejoin="round"></line>
                <polygon id="Fill-23" fill="#1F2348" points="16.729667 7.25493738 17.0509533 10.1471979 21.0572396 8.17952824 20.8957804 5.82493371"></polygon>
                <polygon id="Stroke-24" stroke="#1F2446" stroke-width="0.655906217" stroke-linecap="round" stroke-linejoin="round" points="16.729667 7.25493738 17.0509533 10.1471979 21.0572396 8.17952824 20.8957804 5.82493371"></polygon>
                <line x1="13.7481278" y1="8.51126057" x2="14.0487799" y2="11.092759" id="Stroke-25" stroke="#1F2446" stroke-width="0.655906217" stroke-linecap="round" stroke-linejoin="round"></line>
                <line x1="20.6195045" y1="3.42503762" x2="23.7394557" y2="4.71946481" id="Stroke-26" stroke="#1F2446" stroke-width="0.655906217" stroke-linecap="round" stroke-linejoin="round"></line>
                <line x1="22.3856" y1="3.03964053" x2="25.1476596" y2="4.2651478" id="Stroke-27" stroke="#1F2446" stroke-width="0.655906217" stroke-linecap="round" stroke-linejoin="round"></line>
                <line x1="25.0520082" y1="4.31249772" x2="25.2433111" y2="7.3375055" id="Stroke-28" stroke="#1F2446" stroke-width="0.655906217" stroke-linecap="round" stroke-linejoin="round"></line>
                <line x1="24.0720616" y1="2.76320258" x2="26.2800306" y2="3.69141484" id="Stroke-29" stroke="#1F2446" stroke-width="0.655906217" stroke-linecap="round" stroke-linejoin="round"></line>
                <line x1="26.1806837" y1="3.86365809" x2="26.3794475" y2="6.70159748" id="Stroke-30" stroke="#1F2446" stroke-width="0.655906217" stroke-linecap="round" stroke-linejoin="round"></line>
                <line x1="23.9038643" y1="4.73753791" x2="24.0302338" y2="6.59894187" id="Stroke-31" stroke="#1F2446" stroke-width="0.655906217" stroke-linecap="round" stroke-linejoin="round"></line>
            </g>
        </g>
    </g>
</svg>